<svg xmlns="http://www.w3.org/2000/svg" version="1.0" width="968.571" height="140"><g fill="#0c2e59"><path d="M115.845 22.636l19.233-.056 83.594 91.825-.288-92.09 13.556-.048.352 111.948-13.564.04-89.92-99.657.313 99.937-12.923.04-.353-111.94zm134.463 111.523l15.078-.048 14.54-29.146 72.209-.224 14.573 29.05 15.237-.049L324.158 21.98l-16.63.056-57.22 112.124zM286.06 92.93l29.819-60.31 30.218 60.126-60.037.184zm218.113-5.605c.137 40.484-31.411 48.892-57.442 48.98-26.024.08-57.612-8.128-57.74-48.611l-.208-65.923 13.548-.04.224 65.914c.072 25.711 16.583 37.362 44.144 37.274 27.56-.08 44.015-11.843 43.934-37.546l-.208-65.922 13.548-.04.2 65.914zm70.455-54.135l-52.006.167-.04-12.002 117.536-.377.04 12.003-51.982.168.312 99.945-13.548.04-.312-99.945zm85.86-12.276l13.548-.04.36 111.947-13.548.032-.36-111.939zm159.831 81.729c-11.947 23.252-32.701 32.58-59.958 32.669-43.406.144-63.968-25.815-64.072-58.3-.12-38.514 25.823-59.06 63.56-59.18 24.005-.073 48.547 9.096 58.62 31.852l-11.698 5.42c-7.911-18.296-25.335-25.934-46.746-25.87-32.02.096-49.964 17.535-49.86 49.435.072 25.711 17.52 44.72 51.39 44.608 22.18-.064 37.553-9.336 46.72-26.447l12.044 5.813zm2.025 29.707l15.1-.049 14.534-29.146 72.2-.224 14.565 29.05 15.253-.048L896.201 20.17l-16.623.056-57.234 112.123zm35.767-41.221l29.819-60.31 30.218 60.117-60.037.193zM83.913 48.427s-3.707 58.187-51.598 86.885l25.118-4.933s27-20.618 26.48-81.952"/><path d="M96.324 7.054C85.282 47.49 32.836 111.947 6.004 135.352l32.404-3.635C55.215 114.06 85.77 48.235 96.324 7.054"/></g></svg>